<?xml version="1.0" encoding="UTF-8"?>
<svg width="1024" height="1024" viewBox="0 0 1024 1024" xmlns="http://www.w3.org/2000/svg">
  <defs>
    <linearGradient id="roseGrad" x1="0%" y1="0%" x2="100%" y2="100%">
      <stop offset="0%" stop-color="#C97D7D"/>
      <stop offset="100%" stop-color="#8B3D52"/>
    </linearGradient>
    <radialGradient id="halo" cx="50%" cy="50%" r="55%">
      <stop offset="0%" stop-color="#EFD3DA" stop-opacity="0.55"/>
      <stop offset="100%" stop-color="#EFD3DA" stop-opacity="0"/>
    </radialGradient>
  </defs>
  <rect width="1024" height="1024" rx="180" fill="#FAF5F0"/>
  <circle cx="512" cy="512" r="420" fill="url(#halo)"/>

  <!-- Watercolor uterus -->
  <g transform="translate(512,540)" fill="url(#roseGrad)" opacity="0.85">
    <path d="M 0,-120 C 60,-130 130,-100 180,-50 C 200,-20 200,30 170,55 C 140,75 110,55 95,30 C 90,15 95,0 80,-5 C 70,-8 55,5 40,15 C 25,25 10,30 0,30 C -10,30 -25,25 -40,15 C -55,5 -70,-8 -80,-5 C -95,0 -90,15 -95,30 C -110,55 -140,75 -170,55 C -200,30 -200,-20 -180,-50 C -130,-100 -60,-130 0,-120 Z" />
    <path d="M -45,30 C -40,80 -20,150 0,200 C 20,150 40,80 45,30 C 30,40 15,45 0,45 C -15,45 -30,40 -45,30 Z" opacity="0.85"/>
  </g>

  <!-- Falling petals -->
  <g fill="#D89BA8" opacity="0.75">
    <ellipse cx="700" cy="280" rx="22" ry="14" transform="rotate(35 700 280)"/>
    <ellipse cx="760" cy="340" rx="16" ry="10" transform="rotate(-20 760 340)"/>
    <ellipse cx="680" cy="600" rx="18" ry="12" transform="rotate(60 680 600)"/>
    <ellipse cx="350" cy="640" rx="16" ry="10" transform="rotate(-45 350 640)"/>
    <ellipse cx="600" cy="780" rx="14" ry="9" transform="rotate(15 600 780)"/>
  </g>
</svg>
