<?xml version="1.0" encoding="UTF-8"?>
<svg width="2732" height="2732" viewBox="0 0 2732 2732" xmlns="http://www.w3.org/2000/svg">
  <defs>
    <radialGradient id="splashHalo" cx="50%" cy="50%" r="50%">
      <stop offset="0%" stop-color="#F472B6" stop-opacity="0.32"/>
      <stop offset="100%" stop-color="#F472B6" stop-opacity="0"/>
    </radialGradient>
    <linearGradient id="splashAccent" x1="0%" y1="0%" x2="100%" y2="100%">
      <stop offset="0%" stop-color="#F472B6"/>
      <stop offset="100%" stop-color="#FB923C"/>
    </linearGradient>
  </defs>
  <rect width="2732" height="2732" fill="#1A0E13"/>
  <circle cx="1366" cy="1366" r="900" fill="url(#splashHalo)"/>

  <!-- Lotus centre -->
  <g transform="translate(1366,1400)" stroke="url(#splashAccent)" stroke-width="18" stroke-linecap="round" stroke-linejoin="round" fill="none">
    <path d="M -360,0 C -340,-150 -200,-280 0,-300 C 200,-280 340,-150 360,0 C 200,55 110,70 0,70 C -110,70 -200,55 -360,0 Z" opacity="0.55"/>
    <path d="M -260,20 C -240,-100 -130,-210 0,-230 C 130,-210 240,-100 260,20 C 130,55 70,65 0,65 C -70,65 -130,55 -260,20 Z" opacity="0.8"/>
    <path d="M -130,40 C -110,-40 -55,-130 0,-150 C 55,-130 110,-40 130,40 C 65,55 35,60 0,60 C -35,60 -65,55 -130,40 Z"/>
    <line x1="0" y1="-95" x2="0" y2="40"/>
    <line x1="-45" y1="-55" x2="-30" y2="30"/>
    <line x1="45" y1="-55" x2="30" y2="30"/>
  </g>

  <text x="1366" y="2240" text-anchor="middle" font-family="Inter, system-ui, sans-serif" font-size="68" font-weight="600" fill="rgba(255,255,255,0.45)" letter-spacing="6">ENDOPATH</text>
</svg>
